# xmcd
#
# Track frame offsets:
#	150
#	6259
#	23407
#	42359
#	61050
#	82873
#	110415
#	133775
#	155040
#	164738
#	180698
#	195909
#	215301
#	239204
#
# Disc length: 3793 seconds
#
# Revision: 0
# Processed by: cddbd v1.5.2PL0 Copyright (c) Steve Scherf et al.
# Submitted via: EasyCDDAExtractor 4.6.9.1
#
DISCID=b70ecf0e
DTITLE=Alabama 3 - MOR
DYEAR=2007
DGENRE=Alternative
TTITLE0=Check In
TTITLE1=Fly (feat Devlin)
TTITLE2=Lockdown
TTITLE3=Monday Dont Mean A Anything (feat Errol T)
TTITLE4=Amos Moses
TTITLE5=Are You A Souljah?  (feat Nam, Rev B Atwell)
TTITLE6=The Klan  (feat Brian Jackson, MC Pablo)
TTITLE7=Hooked
TTITLE8=The Doghouse Chronicles
TTITLE9=The Middle Of The Road
TTITLE10=Work It (All Night Long)  (feat Lenin Of Love)
TTITLE11=Way Beyond The Blues  (feat Steve Finnerty)
TTITLE12=Holy Blood  (feat The King Of Kaos)
TTITLE13=Sweet Joy  (feat Proclaimers, Michael Wojas)
EXTD=
EXTT0=
EXTT1=
EXTT2=
EXTT3=
EXTT4=
EXTT5=
EXTT6=
EXTT7=
EXTT8=
EXTT9=
EXTT10=
EXTT11=
EXTT12=
EXTT13=
PLAYORDER=
